<svg width="159" height="34" viewBox="0 0 159 34" fill="none" xmlns="http://www.w3.org/2000/svg">
<path d="M10.5 11.3333L4.5 17L10.5 22.6667" stroke="#FFA629" stroke-width="2" stroke-linecap="round" stroke-linejoin="round"/>
<path d="M15.75 25.5L20.25 8.5" stroke="#FFA629" stroke-width="2" stroke-linecap="round"/>
<path d="M25.5 11.3333L31.5 17L25.5 22.6667" stroke="#FFA629" stroke-width="2" stroke-linecap="round" stroke-linejoin="round"/>
<path d="M52.8326 23.144C51.5246 23.144 50.4266 22.868 49.5386 22.316C48.6626 21.764 48.0026 21.002 47.5586 20.03C47.1146 19.058 46.8926 17.936 46.8926 16.664C46.8926 15.392 47.1146 14.264 47.5586 13.28C48.0146 12.296 48.6806 11.528 49.5566 10.976C50.4446 10.412 51.5426 10.13 52.8506 10.13C53.7986 10.13 54.6266 10.286 55.3346 10.598C56.0426 10.898 56.6126 11.33 57.0446 11.894C57.4886 12.446 57.7826 13.106 57.9266 13.874H56.0546C55.8746 13.262 55.5086 12.776 54.9566 12.416C54.4046 12.056 53.6966 11.876 52.8326 11.876C51.8726 11.876 51.0986 12.098 50.5106 12.542C49.9346 12.986 49.5146 13.568 49.2506 14.288C48.9866 14.996 48.8546 15.764 48.8546 16.592C48.8546 17.444 48.9926 18.236 49.2686 18.968C49.5446 19.7 49.9826 20.288 50.5826 20.732C51.1826 21.176 51.9506 21.398 52.8866 21.398C53.4626 21.398 53.9726 21.32 54.4166 21.164C54.8606 20.996 55.2326 20.762 55.5326 20.462C55.8326 20.15 56.0366 19.79 56.1446 19.382H58.1426C57.9866 20.162 57.6686 20.834 57.1886 21.398C56.7086 21.962 56.1026 22.394 55.3706 22.694C54.6386 22.994 53.7926 23.144 52.8326 23.144ZM64.1911 23.108C63.2071 23.108 62.3731 22.91 61.6891 22.514C61.0051 22.106 60.4831 21.536 60.1231 20.804C59.7751 20.072 59.6011 19.226 59.6011 18.266C59.6011 17.294 59.7811 16.448 60.1411 15.728C60.5011 14.996 61.0231 14.426 61.7071 14.018C62.3911 13.598 63.2251 13.388 64.2091 13.388C65.1931 13.388 66.0271 13.598 66.7111 14.018C67.3951 14.426 67.9111 14.996 68.2591 15.728C68.6071 16.46 68.7811 17.312 68.7811 18.284C68.7811 19.232 68.6011 20.072 68.2411 20.804C67.8931 21.536 67.3771 22.106 66.6931 22.514C66.0211 22.91 65.1871 23.108 64.1911 23.108ZM64.1911 21.452C64.8391 21.452 65.3611 21.308 65.7571 21.02C66.1651 20.732 66.4651 20.348 66.6571 19.868C66.8491 19.376 66.9451 18.842 66.9451 18.266C66.9451 17.69 66.8491 17.162 66.6571 16.682C66.4651 16.202 66.1651 15.818 65.7571 15.53C65.3611 15.23 64.8391 15.08 64.1911 15.08C63.5551 15.08 63.0331 15.23 62.6251 15.53C62.2171 15.818 61.9171 16.202 61.7251 16.682C61.5451 17.162 61.4551 17.69 61.4551 18.266C61.4551 18.854 61.5451 19.388 61.7251 19.868C61.9171 20.348 62.2171 20.732 62.6251 21.02C63.0331 21.308 63.5551 21.452 64.1911 21.452ZM74.5178 23.108C73.5698 23.108 72.7838 22.898 72.1598 22.478C71.5478 22.046 71.0858 21.464 70.7738 20.732C70.4738 20 70.3238 19.178 70.3238 18.266C70.3238 17.342 70.4798 16.514 70.7918 15.782C71.1038 15.038 71.5778 14.456 72.2138 14.036C72.8498 13.604 73.6538 13.388 74.6258 13.388C74.9858 13.388 75.3458 13.43 75.7058 13.514C76.0778 13.598 76.4198 13.73 76.7318 13.91C77.0558 14.078 77.3318 14.306 77.5598 14.594V10.274H79.4138V23H77.6318L77.5598 21.704C77.3438 22.028 77.0738 22.298 76.7498 22.514C76.4378 22.718 76.0898 22.868 75.7058 22.964C75.3218 23.06 74.9258 23.108 74.5178 23.108ZM74.8238 21.452C75.4358 21.452 75.9398 21.302 76.3358 21.002C76.7438 20.702 77.0498 20.306 77.2538 19.814C77.4578 19.322 77.5598 18.788 77.5598 18.212C77.5598 17.624 77.4578 17.096 77.2538 16.628C77.0618 16.148 76.7618 15.77 76.3538 15.494C75.9578 15.206 75.4478 15.062 74.8238 15.062C74.1758 15.062 73.6598 15.212 73.2758 15.512C72.8918 15.8 72.6098 16.19 72.4298 16.682C72.2618 17.174 72.1778 17.714 72.1778 18.302C72.1778 18.734 72.2258 19.142 72.3218 19.526C72.4178 19.898 72.5678 20.234 72.7718 20.534C72.9878 20.822 73.2638 21.05 73.5998 21.218C73.9358 21.374 74.3438 21.452 74.8238 21.452ZM85.8637 23.108C84.8677 23.108 84.0337 22.904 83.3617 22.496C82.6897 22.088 82.1797 21.524 81.8317 20.804C81.4957 20.072 81.3277 19.232 81.3277 18.284C81.3277 17.324 81.5017 16.478 81.8497 15.746C82.2097 15.014 82.7257 14.438 83.3977 14.018C84.0817 13.598 84.9037 13.388 85.8637 13.388C86.5957 13.388 87.2317 13.526 87.7717 13.802C88.3117 14.066 88.7557 14.426 89.1037 14.882C89.4637 15.338 89.7277 15.848 89.8957 16.412C90.0637 16.964 90.1357 17.54 90.1117 18.14C90.1117 18.272 90.1057 18.398 90.0937 18.518C90.0817 18.638 90.0697 18.764 90.0577 18.896H83.1997C83.2357 19.376 83.3557 19.814 83.5597 20.21C83.7757 20.606 84.0757 20.924 84.4597 21.164C84.8437 21.392 85.3177 21.506 85.8817 21.506C86.1937 21.506 86.4937 21.47 86.7817 21.398C87.0817 21.314 87.3457 21.188 87.5737 21.02C87.8137 20.84 87.9817 20.612 88.0777 20.336H89.9497C89.7937 20.972 89.5117 21.5 89.1037 21.92C88.7077 22.328 88.2217 22.628 87.6457 22.82C87.0817 23.012 86.4877 23.108 85.8637 23.108ZM83.2357 17.42H88.2757C88.2637 16.952 88.1557 16.538 87.9517 16.178C87.7477 15.806 87.4657 15.518 87.1057 15.314C86.7457 15.098 86.3137 14.99 85.8097 14.99C85.2577 14.99 84.7957 15.104 84.4237 15.332C84.0637 15.56 83.7817 15.86 83.5777 16.232C83.3857 16.592 83.2717 16.988 83.2357 17.42ZM92.3656 23V10.274H97.2076C97.8196 10.274 98.3776 10.328 98.8816 10.436C99.3976 10.532 99.8416 10.706 100.214 10.958C100.586 11.198 100.868 11.528 101.06 11.948C101.264 12.356 101.366 12.872 101.366 13.496C101.366 14.108 101.228 14.66 100.952 15.152C100.676 15.632 100.256 15.992 99.6916 16.232C100.448 16.4 101.018 16.742 101.402 17.258C101.798 17.774 101.996 18.452 101.996 19.292C101.996 20.012 101.864 20.612 101.6 21.092C101.336 21.572 100.97 21.95 100.502 22.226C100.034 22.502 99.4936 22.7 98.8816 22.82C98.2696 22.94 97.6156 23 96.9196 23H92.3656ZM94.2736 21.254H96.9916C97.3516 21.254 97.7116 21.236 98.0716 21.2C98.4316 21.152 98.7616 21.062 99.0616 20.93C99.3736 20.798 99.6196 20.6 99.7996 20.336C99.9916 20.072 100.088 19.718 100.088 19.274C100.088 18.902 100.016 18.596 99.8716 18.356C99.7276 18.104 99.5356 17.906 99.2956 17.762C99.0556 17.618 98.7736 17.516 98.4496 17.456C98.1376 17.396 97.8136 17.366 97.4776 17.366H94.2736V21.254ZM94.2736 15.728H96.6856C97.0936 15.728 97.4656 15.692 97.8016 15.62C98.1496 15.548 98.4496 15.428 98.7016 15.26C98.9536 15.092 99.1456 14.882 99.2776 14.63C99.4216 14.366 99.4936 14.048 99.4936 13.676C99.5056 13.184 99.3976 12.824 99.1696 12.596C98.9536 12.356 98.6596 12.2 98.2876 12.128C97.9156 12.044 97.5076 12.002 97.0636 12.002H94.2736V15.728ZM108.01 23.108C106.678 23.108 105.658 22.76 104.95 22.064C104.254 21.356 103.906 20.282 103.906 18.842V13.514H105.76V18.734C105.76 19.298 105.838 19.784 105.994 20.192C106.162 20.6 106.414 20.912 106.75 21.128C107.086 21.344 107.512 21.452 108.028 21.452C108.568 21.452 109 21.344 109.324 21.128C109.66 20.9 109.9 20.582 110.044 20.174C110.2 19.766 110.278 19.286 110.278 18.734V13.514H112.132V18.842C112.132 20.306 111.772 21.386 111.052 22.082C110.344 22.766 109.33 23.108 108.01 23.108ZM118.199 23.108C117.251 23.108 116.465 22.898 115.841 22.478C115.229 22.046 114.767 21.464 114.455 20.732C114.155 20 114.005 19.178 114.005 18.266C114.005 17.342 114.161 16.514 114.473 15.782C114.785 15.038 115.259 14.456 115.895 14.036C116.531 13.604 117.335 13.388 118.307 13.388C118.667 13.388 119.027 13.43 119.387 13.514C119.759 13.598 120.101 13.73 120.413 13.91C120.737 14.078 121.013 14.306 121.241 14.594V10.274H123.095V23H121.313L121.241 21.704C121.025 22.028 120.755 22.298 120.431 22.514C120.119 22.718 119.771 22.868 119.387 22.964C119.003 23.06 118.607 23.108 118.199 23.108ZM118.505 21.452C119.117 21.452 119.621 21.302 120.017 21.002C120.425 20.702 120.731 20.306 120.935 19.814C121.139 19.322 121.241 18.788 121.241 18.212C121.241 17.624 121.139 17.096 120.935 16.628C120.743 16.148 120.443 15.77 120.035 15.494C119.639 15.206 119.129 15.062 118.505 15.062C117.857 15.062 117.341 15.212 116.957 15.512C116.573 15.8 116.291 16.19 116.111 16.682C115.943 17.174 115.859 17.714 115.859 18.302C115.859 18.734 115.907 19.142 116.003 19.526C116.099 19.898 116.249 20.234 116.453 20.534C116.669 20.822 116.945 21.05 117.281 21.218C117.617 21.374 118.025 21.452 118.505 21.452ZM129.203 23.108C128.255 23.108 127.469 22.898 126.845 22.478C126.233 22.046 125.771 21.464 125.459 20.732C125.159 20 125.009 19.178 125.009 18.266C125.009 17.342 125.165 16.514 125.477 15.782C125.789 15.038 126.263 14.456 126.899 14.036C127.535 13.604 128.339 13.388 129.311 13.388C129.671 13.388 130.031 13.43 130.391 13.514C130.763 13.598 131.105 13.73 131.417 13.91C131.741 14.078 132.017 14.306 132.245 14.594V10.274H134.099V23H132.317L132.245 21.704C132.029 22.028 131.759 22.298 131.435 22.514C131.123 22.718 130.775 22.868 130.391 22.964C130.007 23.06 129.611 23.108 129.203 23.108ZM129.509 21.452C130.121 21.452 130.625 21.302 131.021 21.002C131.429 20.702 131.735 20.306 131.939 19.814C132.143 19.322 132.245 18.788 132.245 18.212C132.245 17.624 132.143 17.096 131.939 16.628C131.747 16.148 131.447 15.77 131.039 15.494C130.643 15.206 130.133 15.062 129.509 15.062C128.861 15.062 128.345 15.212 127.961 15.512C127.577 15.8 127.295 16.19 127.115 16.682C126.947 17.174 126.863 17.714 126.863 18.302C126.863 18.734 126.911 19.142 127.007 19.526C127.103 19.898 127.253 20.234 127.457 20.534C127.673 20.822 127.949 21.05 128.285 21.218C128.621 21.374 129.029 21.452 129.509 21.452ZM136.373 23V13.514H138.227V23H136.373ZM137.291 12.254C136.931 12.254 136.637 12.146 136.409 11.93C136.193 11.702 136.085 11.414 136.085 11.066C136.085 10.718 136.199 10.436 136.427 10.22C136.655 9.992 136.943 9.878 137.291 9.878C137.615 9.878 137.897 9.992 138.137 10.22C138.389 10.436 138.515 10.718 138.515 11.066C138.515 11.414 138.395 11.702 138.155 11.93C137.927 12.146 137.639 12.254 137.291 12.254ZM144.698 23.108C143.702 23.108 142.868 22.904 142.196 22.496C141.524 22.088 141.014 21.524 140.666 20.804C140.33 20.072 140.162 19.232 140.162 18.284C140.162 17.324 140.336 16.478 140.684 15.746C141.044 15.014 141.56 14.438 142.232 14.018C142.916 13.598 143.738 13.388 144.698 13.388C145.43 13.388 146.066 13.526 146.606 13.802C147.146 14.066 147.59 14.426 147.938 14.882C148.298 15.338 148.562 15.848 148.73 16.412C148.898 16.964 148.97 17.54 148.946 18.14C148.946 18.272 148.94 18.398 148.928 18.518C148.916 18.638 148.904 18.764 148.892 18.896H142.034C142.07 19.376 142.19 19.814 142.394 20.21C142.61 20.606 142.91 20.924 143.294 21.164C143.678 21.392 144.152 21.506 144.716 21.506C145.028 21.506 145.328 21.47 145.616 21.398C145.916 21.314 146.18 21.188 146.408 21.02C146.648 20.84 146.816 20.612 146.912 20.336H148.784C148.628 20.972 148.346 21.5 147.938 21.92C147.542 22.328 147.056 22.628 146.48 22.82C145.916 23.012 145.322 23.108 144.698 23.108ZM142.07 17.42H147.11C147.098 16.952 146.99 16.538 146.786 16.178C146.582 15.806 146.3 15.518 145.94 15.314C145.58 15.098 145.148 14.99 144.644 14.99C144.092 14.99 143.63 15.104 143.258 15.332C142.898 15.56 142.616 15.86 142.412 16.232C142.22 16.592 142.106 16.988 142.07 17.42ZM154.404 23.108C153.96 23.108 153.516 23.066 153.072 22.982C152.628 22.898 152.214 22.748 151.83 22.532C151.446 22.316 151.122 22.028 150.858 21.668C150.594 21.296 150.426 20.84 150.354 20.3H152.244C152.34 20.588 152.508 20.822 152.748 21.002C153 21.182 153.276 21.314 153.576 21.398C153.888 21.482 154.194 21.524 154.494 21.524C154.674 21.524 154.872 21.512 155.088 21.488C155.316 21.464 155.532 21.41 155.736 21.326C155.94 21.242 156.108 21.122 156.24 20.966C156.372 20.798 156.438 20.576 156.438 20.3C156.438 20.084 156.378 19.904 156.258 19.76C156.15 19.616 155.994 19.502 155.79 19.418C155.598 19.322 155.364 19.25 155.088 19.202C154.548 19.082 153.966 18.968 153.342 18.86C152.73 18.74 152.19 18.536 151.722 18.248C151.554 18.14 151.404 18.02 151.272 17.888C151.14 17.744 151.026 17.582 150.93 17.402C150.834 17.222 150.762 17.03 150.714 16.826C150.666 16.622 150.642 16.4 150.642 16.16C150.642 15.668 150.738 15.248 150.93 14.9C151.134 14.552 151.41 14.27 151.758 14.054C152.106 13.826 152.502 13.658 152.946 13.55C153.39 13.442 153.858 13.388 154.35 13.388C154.986 13.388 155.562 13.49 156.078 13.694C156.594 13.898 157.02 14.198 157.356 14.594C157.692 14.99 157.89 15.488 157.95 16.088H156.204C156.132 15.764 155.922 15.506 155.574 15.314C155.238 15.11 154.812 15.008 154.296 15.008C154.116 15.008 153.918 15.02 153.702 15.044C153.498 15.068 153.3 15.122 153.108 15.206C152.916 15.29 152.76 15.41 152.64 15.566C152.52 15.71 152.46 15.902 152.46 16.142C152.46 16.37 152.514 16.562 152.622 16.718C152.742 16.874 152.91 17 153.126 17.096C153.354 17.192 153.612 17.27 153.9 17.33C154.308 17.426 154.746 17.516 155.214 17.6C155.694 17.684 156.084 17.774 156.384 17.87C156.78 17.978 157.116 18.134 157.392 18.338C157.68 18.542 157.896 18.8 158.04 19.112C158.196 19.424 158.274 19.802 158.274 20.246C158.274 20.822 158.16 21.296 157.932 21.668C157.704 22.028 157.398 22.316 157.014 22.532C156.642 22.748 156.222 22.898 155.754 22.982C155.298 23.066 154.848 23.108 154.404 23.108Z" fill="white"/>
</svg>
